<svg xmlns="http://www.w3.org/2000/svg" width="1920" height="1080" viewBox="0 0 1920 1080">
<defs>
  <linearGradient id="topShade" x1="0" y1="0" x2="0" y2="1">
    <stop offset="0" stop-color="#120a14" stop-opacity="0.9"/>
    <stop offset="0.5" stop-color="#120a14" stop-opacity="0"/>
  </linearGradient>
  <radialGradient id="stageGlow" cx="960" cy="820" r="950" gradientUnits="userSpaceOnUse">
    <stop offset="0" stop-color="#ffcf80" stop-opacity="0.18"/>
    <stop offset="1" stop-color="#ffcf80" stop-opacity="0"/>
  </radialGradient>
  <linearGradient id="sideShade" x1="0" y1="0" x2="1" y2="0">
    <stop offset="0" stop-color="#0c060c" stop-opacity="0.65"/>
    <stop offset="0.22" stop-color="#0c060c" stop-opacity="0"/>
    <stop offset="0.78" stop-color="#0c060c" stop-opacity="0"/>
    <stop offset="1" stop-color="#0c060c" stop-opacity="0.65"/>
  </linearGradient>
  <clipPath id="poleL"><rect x="192" y="0" width="36" height="900"/></clipPath>
  <clipPath id="poleR"><rect x="1692" y="0" width="36" height="900"/></clipPath>
</defs>
<rect width="1920" height="1080" fill="#2a1f2e"/>
<polygon points="960,-280 -620,780 -444.4,780" fill="#4f1f1f"/>
<path d="M960 -280 L-532.2 780" stroke="#1b1410" stroke-opacity="0.18" stroke-width="3"/>
<path d="M960 -280 L-620 780" stroke="#1b1410" stroke-opacity="0.5" stroke-width="3"/>
<polygon points="960,-280 -444.4,780 -268.9,780" fill="#6f5d47"/>
<path d="M960 -280 L-356.7 780" stroke="#1b1410" stroke-opacity="0.18" stroke-width="3"/>
<path d="M960 -280 L-444.4 780" stroke="#1b1410" stroke-opacity="0.5" stroke-width="3"/>
<polygon points="960,-280 -268.9,780 -93.3,780" fill="#4f1f1f"/>
<path d="M960 -280 L-181.1 780" stroke="#1b1410" stroke-opacity="0.18" stroke-width="3"/>
<path d="M960 -280 L-268.9 780" stroke="#1b1410" stroke-opacity="0.5" stroke-width="3"/>
<polygon points="960,-280 -93.3,780 82.2,780" fill="#6f5d47"/>
<path d="M960 -280 L-5.6 780" stroke="#1b1410" stroke-opacity="0.18" stroke-width="3"/>
<path d="M960 -280 L-93.3 780" stroke="#1b1410" stroke-opacity="0.5" stroke-width="3"/>
<polygon points="960,-280 82.2,780 257.8,780" fill="#4f1f1f"/>
<path d="M960 -280 L170 780" stroke="#1b1410" stroke-opacity="0.18" stroke-width="3"/>
<path d="M960 -280 L82.2 780" stroke="#1b1410" stroke-opacity="0.5" stroke-width="3"/>
<polygon points="960,-280 257.8,780 433.3,780" fill="#6f5d47"/>
<path d="M960 -280 L345.6 780" stroke="#1b1410" stroke-opacity="0.18" stroke-width="3"/>
<path d="M960 -280 L257.8 780" stroke="#1b1410" stroke-opacity="0.5" stroke-width="3"/>
<polygon points="960,-280 433.3,780 608.9,780" fill="#4f1f1f"/>
<path d="M960 -280 L521.1 780" stroke="#1b1410" stroke-opacity="0.18" stroke-width="3"/>
<path d="M960 -280 L433.3 780" stroke="#1b1410" stroke-opacity="0.5" stroke-width="3"/>
<polygon points="960,-280 608.9,780 784.4,780" fill="#6f5d47"/>
<path d="M960 -280 L696.7 780" stroke="#1b1410" stroke-opacity="0.18" stroke-width="3"/>
<path d="M960 -280 L608.9 780" stroke="#1b1410" stroke-opacity="0.5" stroke-width="3"/>
<polygon points="960,-280 784.4,780 960,780" fill="#4f1f1f"/>
<path d="M960 -280 L872.2 780" stroke="#1b1410" stroke-opacity="0.18" stroke-width="3"/>
<path d="M960 -280 L784.4 780" stroke="#1b1410" stroke-opacity="0.5" stroke-width="3"/>
<polygon points="960,-280 960,780 1135.6,780" fill="#6f5d47"/>
<path d="M960 -280 L1047.8 780" stroke="#1b1410" stroke-opacity="0.18" stroke-width="3"/>
<path d="M960 -280 L960 780" stroke="#1b1410" stroke-opacity="0.5" stroke-width="3"/>
<polygon points="960,-280 1135.6,780 1311.1,780" fill="#4f1f1f"/>
<path d="M960 -280 L1223.3 780" stroke="#1b1410" stroke-opacity="0.18" stroke-width="3"/>
<path d="M960 -280 L1135.6 780" stroke="#1b1410" stroke-opacity="0.5" stroke-width="3"/>
<polygon points="960,-280 1311.1,780 1486.7,780" fill="#6f5d47"/>
<path d="M960 -280 L1398.9 780" stroke="#1b1410" stroke-opacity="0.18" stroke-width="3"/>
<path d="M960 -280 L1311.1 780" stroke="#1b1410" stroke-opacity="0.5" stroke-width="3"/>
<polygon points="960,-280 1486.7,780 1662.2,780" fill="#4f1f1f"/>
<path d="M960 -280 L1574.4 780" stroke="#1b1410" stroke-opacity="0.18" stroke-width="3"/>
<path d="M960 -280 L1486.7 780" stroke="#1b1410" stroke-opacity="0.5" stroke-width="3"/>
<polygon points="960,-280 1662.2,780 1837.8,780" fill="#6f5d47"/>
<path d="M960 -280 L1750 780" stroke="#1b1410" stroke-opacity="0.18" stroke-width="3"/>
<path d="M960 -280 L1662.2 780" stroke="#1b1410" stroke-opacity="0.5" stroke-width="3"/>
<polygon points="960,-280 1837.8,780 2013.3,780" fill="#4f1f1f"/>
<path d="M960 -280 L1925.6 780" stroke="#1b1410" stroke-opacity="0.18" stroke-width="3"/>
<path d="M960 -280 L1837.8 780" stroke="#1b1410" stroke-opacity="0.5" stroke-width="3"/>
<polygon points="960,-280 2013.3,780 2188.9,780" fill="#6f5d47"/>
<path d="M960 -280 L2101.1 780" stroke="#1b1410" stroke-opacity="0.18" stroke-width="3"/>
<path d="M960 -280 L2013.3 780" stroke="#1b1410" stroke-opacity="0.5" stroke-width="3"/>
<polygon points="960,-280 2188.9,780 2364.4,780" fill="#4f1f1f"/>
<path d="M960 -280 L2276.7 780" stroke="#1b1410" stroke-opacity="0.18" stroke-width="3"/>
<path d="M960 -280 L2188.9 780" stroke="#1b1410" stroke-opacity="0.5" stroke-width="3"/>
<polygon points="960,-280 2364.4,780 2540,780" fill="#6f5d47"/>
<path d="M960 -280 L2452.2 780" stroke="#1b1410" stroke-opacity="0.18" stroke-width="3"/>
<path d="M960 -280 L2364.4 780" stroke="#1b1410" stroke-opacity="0.5" stroke-width="3"/>
<path d="M-20 740 Q20 790 60 740 Q100 790 140 740 Q180 790 220 740 Q260 790 300 740 Q340 790 380 740 Q420 790 460 740 Q500 790 540 740 Q580 790 620 740 Q660 790 700 740 Q740 790 780 740 Q820 790 860 740 Q900 790 940 740 Q980 790 1020 740 Q1060 790 1100 740 Q1140 790 1180 740 Q1220 790 1260 740 Q1300 790 1340 740 Q1380 790 1420 740 Q1460 790 1500 740 Q1540 790 1580 740 Q1620 790 1660 740 Q1700 790 1740 740 Q1780 790 1820 740 Q1860 790 1900 740 Q1940 790 1980 740 L1960 840 L-20 840 Z" fill="#3a1a1c" stroke="#1b1410" stroke-width="3"/>
<rect width="1920" height="1080" fill="url(#topShade)"/>
<rect x="192" y="0" width="36" height="900" fill="#6e4a2a"/>
<g clip-path="url(#poleL)">
<polygon points="192,-40 228,-62 228,-42 192,-20" fill="#b8862f"/>
<polygon points="192,24 228,2 228,22 192,44" fill="#b8862f"/>
<polygon points="192,88 228,66 228,86 192,108" fill="#b8862f"/>
<polygon points="192,152 228,130 228,150 192,172" fill="#b8862f"/>
<polygon points="192,216 228,194 228,214 192,236" fill="#b8862f"/>
<polygon points="192,280 228,258 228,278 192,300" fill="#b8862f"/>
<polygon points="192,344 228,322 228,342 192,364" fill="#b8862f"/>
<polygon points="192,408 228,386 228,406 192,428" fill="#b8862f"/>
<polygon points="192,472 228,450 228,470 192,492" fill="#b8862f"/>
<polygon points="192,536 228,514 228,534 192,556" fill="#b8862f"/>
<polygon points="192,600 228,578 228,598 192,620" fill="#b8862f"/>
<polygon points="192,664 228,642 228,662 192,684" fill="#b8862f"/>
<polygon points="192,728 228,706 228,726 192,748" fill="#b8862f"/>
<polygon points="192,792 228,770 228,790 192,812" fill="#b8862f"/>
<polygon points="192,856 228,834 228,854 192,876" fill="#b8862f"/>
<polygon points="192,920 228,898 228,918 192,940" fill="#b8862f"/>
<rect x="216" y="0" width="12" height="900" fill="#000" opacity="0.25"/>
</g>
<rect x="192" y="0" width="36" height="900" fill="none" stroke="#1b1410" stroke-width="4"/>
<rect x="1692" y="0" width="36" height="900" fill="#6e4a2a"/>
<g clip-path="url(#poleR)">
<polygon points="1692,-40 1728,-62 1728,-42 1692,-20" fill="#b8862f"/>
<polygon points="1692,24 1728,2 1728,22 1692,44" fill="#b8862f"/>
<polygon points="1692,88 1728,66 1728,86 1692,108" fill="#b8862f"/>
<polygon points="1692,152 1728,130 1728,150 1692,172" fill="#b8862f"/>
<polygon points="1692,216 1728,194 1728,214 1692,236" fill="#b8862f"/>
<polygon points="1692,280 1728,258 1728,278 1692,300" fill="#b8862f"/>
<polygon points="1692,344 1728,322 1728,342 1692,364" fill="#b8862f"/>
<polygon points="1692,408 1728,386 1728,406 1692,428" fill="#b8862f"/>
<polygon points="1692,472 1728,450 1728,470 1692,492" fill="#b8862f"/>
<polygon points="1692,536 1728,514 1728,534 1692,556" fill="#b8862f"/>
<polygon points="1692,600 1728,578 1728,598 1692,620" fill="#b8862f"/>
<polygon points="1692,664 1728,642 1728,662 1692,684" fill="#b8862f"/>
<polygon points="1692,728 1728,706 1728,726 1692,748" fill="#b8862f"/>
<polygon points="1692,792 1728,770 1728,790 1692,812" fill="#b8862f"/>
<polygon points="1692,856 1728,834 1728,854 1692,876" fill="#b8862f"/>
<polygon points="1692,920 1728,898 1728,918 1692,940" fill="#b8862f"/>
<rect x="1716" y="0" width="12" height="900" fill="#000" opacity="0.25"/>
</g>
<rect x="1692" y="0" width="36" height="900" fill="none" stroke="#1b1410" stroke-width="4"/>
<path d="M-20 210 Q960 540 1940 210" fill="none" stroke="#1b1410" stroke-width="3"/>
<circle cx="41.3" cy="240" r="20" fill="#ffcf6a" opacity="0.18"/>
<circle cx="41.3" cy="240" r="7" fill="#ffe2a0" stroke="#1b1410" stroke-width="2"/>
<circle cx="102.5" cy="258.7" r="20" fill="#ffcf6a" opacity="0.18"/>
<circle cx="102.5" cy="258.7" r="7" fill="#ffe2a0" stroke="#1b1410" stroke-width="2"/>
<circle cx="163.8" cy="276.1" r="20" fill="#ffcf6a" opacity="0.18"/>
<circle cx="163.8" cy="276.1" r="7" fill="#ffe2a0" stroke="#1b1410" stroke-width="2"/>
<circle cx="225" cy="292.2" r="20" fill="#ffcf6a" opacity="0.18"/>
<circle cx="225" cy="292.2" r="7" fill="#ffe2a0" stroke="#1b1410" stroke-width="2"/>
<circle cx="286.3" cy="307" r="20" fill="#ffcf6a" opacity="0.18"/>
<circle cx="286.3" cy="307" r="7" fill="#ffe2a0" stroke="#1b1410" stroke-width="2"/>
<circle cx="347.5" cy="320.5" r="20" fill="#ffcf6a" opacity="0.18"/>
<circle cx="347.5" cy="320.5" r="7" fill="#ffe2a0" stroke="#1b1410" stroke-width="2"/>
<circle cx="408.8" cy="332.8" r="20" fill="#ffcf6a" opacity="0.18"/>
<circle cx="408.8" cy="332.8" r="7" fill="#ffe2a0" stroke="#1b1410" stroke-width="2"/>
<circle cx="470" cy="343.8" r="20" fill="#ffcf6a" opacity="0.18"/>
<circle cx="470" cy="343.8" r="7" fill="#ffe2a0" stroke="#1b1410" stroke-width="2"/>
<circle cx="531.3" cy="353.4" r="20" fill="#ffcf6a" opacity="0.18"/>
<circle cx="531.3" cy="353.4" r="7" fill="#ffe2a0" stroke="#1b1410" stroke-width="2"/>
<circle cx="592.5" cy="361.8" r="20" fill="#ffcf6a" opacity="0.18"/>
<circle cx="592.5" cy="361.8" r="7" fill="#ffe2a0" stroke="#1b1410" stroke-width="2"/>
<circle cx="653.8" cy="368.9" r="20" fill="#ffcf6a" opacity="0.18"/>
<circle cx="653.8" cy="368.9" r="7" fill="#ffe2a0" stroke="#1b1410" stroke-width="2"/>
<circle cx="715" cy="374.7" r="20" fill="#ffcf6a" opacity="0.18"/>
<circle cx="715" cy="374.7" r="7" fill="#ffe2a0" stroke="#1b1410" stroke-width="2"/>
<circle cx="776.3" cy="379.2" r="20" fill="#ffcf6a" opacity="0.18"/>
<circle cx="776.3" cy="379.2" r="7" fill="#ffe2a0" stroke="#1b1410" stroke-width="2"/>
<circle cx="837.5" cy="382.4" r="20" fill="#ffcf6a" opacity="0.18"/>
<circle cx="837.5" cy="382.4" r="7" fill="#ffe2a0" stroke="#1b1410" stroke-width="2"/>
<circle cx="898.8" cy="384.4" r="20" fill="#ffcf6a" opacity="0.18"/>
<circle cx="898.8" cy="384.4" r="7" fill="#ffe2a0" stroke="#1b1410" stroke-width="2"/>
<circle cx="960" cy="385" r="20" fill="#ffcf6a" opacity="0.18"/>
<circle cx="960" cy="385" r="7" fill="#ffe2a0" stroke="#1b1410" stroke-width="2"/>
<circle cx="1021.3" cy="384.4" r="20" fill="#ffcf6a" opacity="0.18"/>
<circle cx="1021.3" cy="384.4" r="7" fill="#ffe2a0" stroke="#1b1410" stroke-width="2"/>
<circle cx="1082.5" cy="382.4" r="20" fill="#ffcf6a" opacity="0.18"/>
<circle cx="1082.5" cy="382.4" r="7" fill="#ffe2a0" stroke="#1b1410" stroke-width="2"/>
<circle cx="1143.8" cy="379.2" r="20" fill="#ffcf6a" opacity="0.18"/>
<circle cx="1143.8" cy="379.2" r="7" fill="#ffe2a0" stroke="#1b1410" stroke-width="2"/>
<circle cx="1205" cy="374.7" r="20" fill="#ffcf6a" opacity="0.18"/>
<circle cx="1205" cy="374.7" r="7" fill="#ffe2a0" stroke="#1b1410" stroke-width="2"/>
<circle cx="1266.3" cy="368.9" r="20" fill="#ffcf6a" opacity="0.18"/>
<circle cx="1266.3" cy="368.9" r="7" fill="#ffe2a0" stroke="#1b1410" stroke-width="2"/>
<circle cx="1327.5" cy="361.8" r="20" fill="#ffcf6a" opacity="0.18"/>
<circle cx="1327.5" cy="361.8" r="7" fill="#ffe2a0" stroke="#1b1410" stroke-width="2"/>
<circle cx="1388.8" cy="353.4" r="20" fill="#ffcf6a" opacity="0.18"/>
<circle cx="1388.8" cy="353.4" r="7" fill="#ffe2a0" stroke="#1b1410" stroke-width="2"/>
<circle cx="1450" cy="343.8" r="20" fill="#ffcf6a" opacity="0.18"/>
<circle cx="1450" cy="343.8" r="7" fill="#ffe2a0" stroke="#1b1410" stroke-width="2"/>
<circle cx="1511.3" cy="332.8" r="20" fill="#ffcf6a" opacity="0.18"/>
<circle cx="1511.3" cy="332.8" r="7" fill="#ffe2a0" stroke="#1b1410" stroke-width="2"/>
<circle cx="1572.5" cy="320.5" r="20" fill="#ffcf6a" opacity="0.18"/>
<circle cx="1572.5" cy="320.5" r="7" fill="#ffe2a0" stroke="#1b1410" stroke-width="2"/>
<circle cx="1633.8" cy="307" r="20" fill="#ffcf6a" opacity="0.18"/>
<circle cx="1633.8" cy="307" r="7" fill="#ffe2a0" stroke="#1b1410" stroke-width="2"/>
<circle cx="1695" cy="292.2" r="20" fill="#ffcf6a" opacity="0.18"/>
<circle cx="1695" cy="292.2" r="7" fill="#ffe2a0" stroke="#1b1410" stroke-width="2"/>
<circle cx="1756.3" cy="276.1" r="20" fill="#ffcf6a" opacity="0.18"/>
<circle cx="1756.3" cy="276.1" r="7" fill="#ffe2a0" stroke="#1b1410" stroke-width="2"/>
<circle cx="1817.5" cy="258.7" r="20" fill="#ffcf6a" opacity="0.18"/>
<circle cx="1817.5" cy="258.7" r="7" fill="#ffe2a0" stroke="#1b1410" stroke-width="2"/>
<circle cx="1878.8" cy="240" r="20" fill="#ffcf6a" opacity="0.18"/>
<circle cx="1878.8" cy="240" r="7" fill="#ffe2a0" stroke="#1b1410" stroke-width="2"/>
<path d="M-20 100 Q960 400 1940 100" fill="none" stroke="#1b1410" stroke-width="3"/>
<polygon points="23.3,119.3 67.3,119.3 45.3,171.3" fill="#2c6468" stroke="#1b1410" stroke-width="2.5" stroke-linejoin="round"/>
<polygon points="88.7,137.3 132.7,137.3 110.7,189.3" fill="#8e3328" stroke="#1b1410" stroke-width="2.5" stroke-linejoin="round"/>
<polygon points="154,154 198,154 176,206" fill="#c9bd9c" stroke="#1b1410" stroke-width="2.5" stroke-linejoin="round"/>
<polygon points="219.3,169.3 263.3,169.3 241.3,221.3" fill="#b8902f" stroke="#1b1410" stroke-width="2.5" stroke-linejoin="round"/>
<polygon points="284.7,183.3 328.7,183.3 306.7,235.3" fill="#2c6468" stroke="#1b1410" stroke-width="2.5" stroke-linejoin="round"/>
<polygon points="350,196 394,196 372,248" fill="#8e3328" stroke="#1b1410" stroke-width="2.5" stroke-linejoin="round"/>
<polygon points="415.3,207.3 459.3,207.3 437.3,259.3" fill="#c9bd9c" stroke="#1b1410" stroke-width="2.5" stroke-linejoin="round"/>
<polygon points="480.7,217.3 524.7,217.3 502.7,269.3" fill="#b8902f" stroke="#1b1410" stroke-width="2.5" stroke-linejoin="round"/>
<polygon points="546,226 590,226 568,278" fill="#2c6468" stroke="#1b1410" stroke-width="2.5" stroke-linejoin="round"/>
<polygon points="611.3,233.3 655.3,233.3 633.3,285.3" fill="#8e3328" stroke="#1b1410" stroke-width="2.5" stroke-linejoin="round"/>
<polygon points="676.7,239.3 720.7,239.3 698.7,291.3" fill="#c9bd9c" stroke="#1b1410" stroke-width="2.5" stroke-linejoin="round"/>
<polygon points="742,244 786,244 764,296" fill="#b8902f" stroke="#1b1410" stroke-width="2.5" stroke-linejoin="round"/>
<polygon points="807.3,247.3 851.3,247.3 829.3,299.3" fill="#2c6468" stroke="#1b1410" stroke-width="2.5" stroke-linejoin="round"/>
<polygon points="872.7,249.3 916.7,249.3 894.7,301.3" fill="#8e3328" stroke="#1b1410" stroke-width="2.5" stroke-linejoin="round"/>
<polygon points="938,250 982,250 960,302" fill="#c9bd9c" stroke="#1b1410" stroke-width="2.5" stroke-linejoin="round"/>
<polygon points="1003.3,249.3 1047.3,249.3 1025.3,301.3" fill="#b8902f" stroke="#1b1410" stroke-width="2.5" stroke-linejoin="round"/>
<polygon points="1068.7,247.3 1112.7,247.3 1090.7,299.3" fill="#2c6468" stroke="#1b1410" stroke-width="2.5" stroke-linejoin="round"/>
<polygon points="1134,244 1178,244 1156,296" fill="#8e3328" stroke="#1b1410" stroke-width="2.5" stroke-linejoin="round"/>
<polygon points="1199.3,239.3 1243.3,239.3 1221.3,291.3" fill="#c9bd9c" stroke="#1b1410" stroke-width="2.5" stroke-linejoin="round"/>
<polygon points="1264.7,233.3 1308.7,233.3 1286.7,285.3" fill="#b8902f" stroke="#1b1410" stroke-width="2.5" stroke-linejoin="round"/>
<polygon points="1330,226 1374,226 1352,278" fill="#2c6468" stroke="#1b1410" stroke-width="2.5" stroke-linejoin="round"/>
<polygon points="1395.3,217.3 1439.3,217.3 1417.3,269.3" fill="#8e3328" stroke="#1b1410" stroke-width="2.5" stroke-linejoin="round"/>
<polygon points="1460.7,207.3 1504.7,207.3 1482.7,259.3" fill="#c9bd9c" stroke="#1b1410" stroke-width="2.5" stroke-linejoin="round"/>
<polygon points="1526,196 1570,196 1548,248" fill="#b8902f" stroke="#1b1410" stroke-width="2.5" stroke-linejoin="round"/>
<polygon points="1591.3,183.3 1635.3,183.3 1613.3,235.3" fill="#2c6468" stroke="#1b1410" stroke-width="2.5" stroke-linejoin="round"/>
<polygon points="1656.7,169.3 1700.7,169.3 1678.7,221.3" fill="#8e3328" stroke="#1b1410" stroke-width="2.5" stroke-linejoin="round"/>
<polygon points="1722,154 1766,154 1744,206" fill="#c9bd9c" stroke="#1b1410" stroke-width="2.5" stroke-linejoin="round"/>
<polygon points="1787.3,137.3 1831.3,137.3 1809.3,189.3" fill="#b8902f" stroke="#1b1410" stroke-width="2.5" stroke-linejoin="round"/>
<polygon points="1852.7,119.3 1896.7,119.3 1874.7,171.3" fill="#2c6468" stroke="#1b1410" stroke-width="2.5" stroke-linejoin="round"/>
<rect width="1920" height="1080" fill="url(#stageGlow)"/>
<rect x="0" y="740" width="1920" height="200" fill="#1e1519"/>
<ellipse cx="-15" cy="802.5" rx="26" ry="17" fill="#140e12"/>
<circle cx="-15" cy="774.5" r="16.2" fill="#140e12"/>
<ellipse cx="38.3" cy="800.2" rx="26" ry="17" fill="#140e12"/>
<circle cx="38.3" cy="772.2" r="16.3" fill="#140e12"/>
<ellipse cx="84.6" cy="800.3" rx="26" ry="17" fill="#140e12"/>
<circle cx="84.6" cy="772.3" r="17.7" fill="#140e12"/>
<ellipse cx="131.2" cy="798.5" rx="26" ry="17" fill="#140e12"/>
<circle cx="131.2" cy="770.5" r="16.5" fill="#140e12"/>
<ellipse cx="176" cy="797.3" rx="26" ry="17" fill="#140e12"/>
<circle cx="176" cy="769.3" r="17.7" fill="#140e12"/>
<ellipse cx="224.2" cy="801.8" rx="26" ry="17" fill="#140e12"/>
<circle cx="224.2" cy="773.8" r="15.5" fill="#140e12"/>
<ellipse cx="270.2" cy="801.1" rx="26" ry="17" fill="#140e12"/>
<circle cx="270.2" cy="773.1" r="17.6" fill="#140e12"/>
<ellipse cx="316.1" cy="802.5" rx="26" ry="17" fill="#140e12"/>
<circle cx="316.1" cy="774.5" r="16.5" fill="#140e12"/>
<ellipse cx="361.4" cy="799" rx="26" ry="17" fill="#140e12"/>
<circle cx="361.4" cy="771" r="15.6" fill="#140e12"/>
<ellipse cx="403.3" cy="798.8" rx="26" ry="17" fill="#140e12"/>
<circle cx="403.3" cy="770.8" r="18.7" fill="#140e12"/>
<ellipse cx="452.3" cy="802.3" rx="26" ry="17" fill="#140e12"/>
<circle cx="452.3" cy="774.3" r="15.2" fill="#140e12"/>
<ellipse cx="496.6" cy="800.1" rx="26" ry="17" fill="#140e12"/>
<circle cx="496.6" cy="772.1" r="16.7" fill="#140e12"/>
<ellipse cx="546.1" cy="797.3" rx="26" ry="17" fill="#140e12"/>
<circle cx="546.1" cy="769.3" r="16.5" fill="#140e12"/>
<ellipse cx="589.6" cy="802.5" rx="26" ry="17" fill="#140e12"/>
<circle cx="589.6" cy="774.5" r="17.1" fill="#140e12"/>
<ellipse cx="589.6" cy="761.5" rx="24.1" ry="4" fill="#140e12"/>
<path d="M575.6 761.5 Q589.6 739.5 603.7 761.5 Z" fill="#140e12"/>
<ellipse cx="633.1" cy="798.7" rx="26" ry="17" fill="#140e12"/>
<circle cx="633.1" cy="770.7" r="16.5" fill="#140e12"/>
<ellipse cx="678.3" cy="800.2" rx="26" ry="17" fill="#140e12"/>
<circle cx="678.3" cy="772.2" r="17.5" fill="#140e12"/>
<ellipse cx="730.1" cy="799.7" rx="26" ry="17" fill="#140e12"/>
<circle cx="730.1" cy="771.7" r="18.5" fill="#140e12"/>
<ellipse cx="773.3" cy="800.1" rx="26" ry="17" fill="#140e12"/>
<circle cx="773.3" cy="772.1" r="17" fill="#140e12"/>
<ellipse cx="822.4" cy="799.4" rx="26" ry="17" fill="#140e12"/>
<circle cx="822.4" cy="771.4" r="17.8" fill="#140e12"/>
<ellipse cx="864.9" cy="799.1" rx="26" ry="17" fill="#140e12"/>
<circle cx="864.9" cy="771.1" r="16.3" fill="#140e12"/>
<ellipse cx="912.9" cy="802.3" rx="26" ry="17" fill="#140e12"/>
<circle cx="912.9" cy="774.3" r="15.4" fill="#140e12"/>
<ellipse cx="951.8" cy="799.4" rx="26" ry="17" fill="#140e12"/>
<circle cx="951.8" cy="771.4" r="15.6" fill="#140e12"/>
<ellipse cx="951.8" cy="759.8" rx="22.6" ry="4" fill="#140e12"/>
<path d="M939.2 759.8 Q951.8 737.8 964.4 759.8 Z" fill="#140e12"/>
<ellipse cx="1007" cy="798.3" rx="26" ry="17" fill="#140e12"/>
<circle cx="1007" cy="770.3" r="17.5" fill="#140e12"/>
<ellipse cx="1007" cy="756.8" rx="24.5" ry="4" fill="#140e12"/>
<path d="M992.4 756.8 Q1007 734.8 1021.5 756.8 Z" fill="#140e12"/>
<ellipse cx="1047.6" cy="800.6" rx="26" ry="17" fill="#140e12"/>
<circle cx="1047.6" cy="772.6" r="15.6" fill="#140e12"/>
<ellipse cx="1097.8" cy="802.3" rx="26" ry="17" fill="#140e12"/>
<circle cx="1097.8" cy="774.3" r="18.5" fill="#140e12"/>
<ellipse cx="1142.6" cy="798.7" rx="26" ry="17" fill="#140e12"/>
<circle cx="1142.6" cy="770.7" r="15" fill="#140e12"/>
<ellipse cx="1181.8" cy="797" rx="26" ry="17" fill="#140e12"/>
<circle cx="1181.8" cy="769" r="17.5" fill="#140e12"/>
<ellipse cx="1234.4" cy="799.9" rx="26" ry="17" fill="#140e12"/>
<circle cx="1234.4" cy="771.9" r="17.8" fill="#140e12"/>
<ellipse cx="1281.8" cy="798.4" rx="26" ry="17" fill="#140e12"/>
<circle cx="1281.8" cy="770.4" r="16.5" fill="#140e12"/>
<ellipse cx="1320.2" cy="799.9" rx="26" ry="17" fill="#140e12"/>
<circle cx="1320.2" cy="771.9" r="15" fill="#140e12"/>
<ellipse cx="1371.4" cy="802.5" rx="26" ry="17" fill="#140e12"/>
<circle cx="1371.4" cy="774.5" r="15.1" fill="#140e12"/>
<ellipse cx="1412.9" cy="802.8" rx="26" ry="17" fill="#140e12"/>
<circle cx="1412.9" cy="774.8" r="17.3" fill="#140e12"/>
<ellipse cx="1459.7" cy="798.3" rx="26" ry="17" fill="#140e12"/>
<circle cx="1459.7" cy="770.3" r="15.8" fill="#140e12"/>
<ellipse cx="1503.5" cy="801.6" rx="26" ry="17" fill="#140e12"/>
<circle cx="1503.5" cy="773.6" r="17.8" fill="#140e12"/>
<ellipse cx="1554" cy="797.2" rx="26" ry="17" fill="#140e12"/>
<circle cx="1554" cy="769.2" r="15.4" fill="#140e12"/>
<ellipse cx="1596.3" cy="801.1" rx="26" ry="17" fill="#140e12"/>
<circle cx="1596.3" cy="773.1" r="18.6" fill="#140e12"/>
<ellipse cx="1596.3" cy="758.6" rx="25.6" ry="4" fill="#140e12"/>
<path d="M1580.7 758.6 Q1596.3 736.6 1611.9 758.6 Z" fill="#140e12"/>
<ellipse cx="1649.8" cy="802.2" rx="26" ry="17" fill="#140e12"/>
<circle cx="1649.8" cy="774.2" r="19" fill="#140e12"/>
<circle cx="1644.8" cy="772.2" r="2.6" fill="#f0c862" opacity="0.9"/>
<circle cx="1654.8" cy="772.2" r="2.6" fill="#f0c862" opacity="0.9"/>
<ellipse cx="1694.6" cy="799.5" rx="26" ry="17" fill="#140e12"/>
<circle cx="1694.6" cy="771.5" r="16" fill="#140e12"/>
<ellipse cx="1741.8" cy="799.4" rx="26" ry="17" fill="#140e12"/>
<circle cx="1741.8" cy="771.4" r="15.9" fill="#140e12"/>
<ellipse cx="1787.9" cy="800.4" rx="26" ry="17" fill="#140e12"/>
<circle cx="1787.9" cy="772.4" r="16.4" fill="#140e12"/>
<ellipse cx="1832.3" cy="799" rx="26" ry="17" fill="#140e12"/>
<circle cx="1832.3" cy="771" r="17.9" fill="#140e12"/>
<ellipse cx="1873" cy="798.9" rx="26" ry="17" fill="#140e12"/>
<circle cx="1873" cy="770.9" r="18.9" fill="#140e12"/>
<circle cx="1868" cy="768.9" r="2.6" fill="#f0c862" opacity="0.9"/>
<circle cx="1878" cy="768.9" r="2.6" fill="#f0c862" opacity="0.9"/>
<ellipse cx="1923.3" cy="802.2" rx="26" ry="17" fill="#140e12"/>
<circle cx="1923.3" cy="774.2" r="18.7" fill="#140e12"/>
<ellipse cx="14.5" cy="843.8" rx="26" ry="17" fill="#1a1317"/>
<circle cx="14.5" cy="815.8" r="17" fill="#1a1317"/>
<ellipse cx="61.7" cy="848.7" rx="26" ry="17" fill="#1a1317"/>
<circle cx="61.7" cy="820.7" r="16.9" fill="#1a1317"/>
<ellipse cx="104.5" cy="844" rx="26" ry="17" fill="#1a1317"/>
<circle cx="104.5" cy="816" r="17.7" fill="#1a1317"/>
<ellipse cx="151.6" cy="846" rx="26" ry="17" fill="#1a1317"/>
<circle cx="151.6" cy="818" r="18" fill="#1a1317"/>
<ellipse cx="199.5" cy="843.2" rx="26" ry="17" fill="#1a1317"/>
<circle cx="199.5" cy="815.2" r="16.2" fill="#1a1317"/>
<ellipse cx="240" cy="847.3" rx="26" ry="17" fill="#1a1317"/>
<circle cx="240" cy="819.3" r="16.2" fill="#1a1317"/>
<ellipse cx="290.6" cy="845.6" rx="26" ry="17" fill="#1a1317"/>
<circle cx="290.6" cy="817.6" r="15.3" fill="#1a1317"/>
<ellipse cx="338.2" cy="848.5" rx="26" ry="17" fill="#1a1317"/>
<circle cx="338.2" cy="820.5" r="18.6" fill="#1a1317"/>
<ellipse cx="385.6" cy="843.2" rx="26" ry="17" fill="#1a1317"/>
<circle cx="385.6" cy="815.2" r="18" fill="#1a1317"/>
<ellipse cx="429.2" cy="848.4" rx="26" ry="17" fill="#1a1317"/>
<circle cx="429.2" cy="820.4" r="15.1" fill="#1a1317"/>
<ellipse cx="429.2" cy="809.2" rx="22.1" ry="4" fill="#1a1317"/>
<path d="M417.1 809.2 Q429.2 787.2 441.4 809.2 Z" fill="#1a1317"/>
<ellipse cx="468.8" cy="843.6" rx="26" ry="17" fill="#1a1317"/>
<circle cx="468.8" cy="815.6" r="15.3" fill="#1a1317"/>
<ellipse cx="468.8" cy="804.3" rx="22.3" ry="4" fill="#1a1317"/>
<path d="M456.5 804.3 Q468.8 782.3 481.1 804.3 Z" fill="#1a1317"/>
<ellipse cx="520.1" cy="848.7" rx="26" ry="17" fill="#1a1317"/>
<circle cx="520.1" cy="820.7" r="15.8" fill="#1a1317"/>
<ellipse cx="520.1" cy="808.9" rx="22.8" ry="4" fill="#1a1317"/>
<path d="M507.3 808.9 Q520.1 786.9 532.8 808.9 Z" fill="#1a1317"/>
<ellipse cx="562" cy="847" rx="26" ry="17" fill="#1a1317"/>
<circle cx="562" cy="819" r="16" fill="#1a1317"/>
<ellipse cx="615.9" cy="845.5" rx="26" ry="17" fill="#1a1317"/>
<circle cx="615.9" cy="817.5" r="17.7" fill="#1a1317"/>
<ellipse cx="656" cy="845.5" rx="26" ry="17" fill="#1a1317"/>
<circle cx="656" cy="817.5" r="15.2" fill="#1a1317"/>
<ellipse cx="706.1" cy="848.8" rx="26" ry="17" fill="#1a1317"/>
<circle cx="706.1" cy="820.8" r="15.6" fill="#1a1317"/>
<ellipse cx="749.1" cy="843.7" rx="26" ry="17" fill="#1a1317"/>
<circle cx="749.1" cy="815.7" r="15.8" fill="#1a1317"/>
<ellipse cx="791.7" cy="843.5" rx="26" ry="17" fill="#1a1317"/>
<circle cx="791.7" cy="815.5" r="16.1" fill="#1a1317"/>
<ellipse cx="841.6" cy="845.9" rx="26" ry="17" fill="#1a1317"/>
<circle cx="841.6" cy="817.9" r="19" fill="#1a1317"/>
<ellipse cx="841.6" cy="802.9" rx="26" ry="4" fill="#1a1317"/>
<path d="M825.6 802.9 Q841.6 780.9 857.5 802.9 Z" fill="#1a1317"/>
<ellipse cx="886.1" cy="844.9" rx="26" ry="17" fill="#1a1317"/>
<circle cx="886.1" cy="816.9" r="15" fill="#1a1317"/>
<ellipse cx="886.1" cy="805.9" rx="22" ry="4" fill="#1a1317"/>
<path d="M874.1 805.9 Q886.1 783.9 898.2 805.9 Z" fill="#1a1317"/>
<ellipse cx="932.1" cy="843.5" rx="26" ry="17" fill="#1a1317"/>
<circle cx="932.1" cy="815.5" r="15.9" fill="#1a1317"/>
<ellipse cx="981.8" cy="847.6" rx="26" ry="17" fill="#1a1317"/>
<circle cx="981.8" cy="819.6" r="16.7" fill="#1a1317"/>
<ellipse cx="1029.6" cy="847.8" rx="26" ry="17" fill="#1a1317"/>
<circle cx="1029.6" cy="819.8" r="17.6" fill="#1a1317"/>
<ellipse cx="1069.5" cy="845.4" rx="26" ry="17" fill="#1a1317"/>
<circle cx="1069.5" cy="817.4" r="17" fill="#1a1317"/>
<ellipse cx="1117.7" cy="847.3" rx="26" ry="17" fill="#1a1317"/>
<circle cx="1117.7" cy="819.3" r="17.7" fill="#1a1317"/>
<ellipse cx="1165.3" cy="848.3" rx="26" ry="17" fill="#1a1317"/>
<circle cx="1165.3" cy="820.3" r="18.4" fill="#1a1317"/>
<circle cx="1160.3" cy="818.3" r="2.6" fill="#f0c862" opacity="0.9"/>
<circle cx="1170.3" cy="818.3" r="2.6" fill="#f0c862" opacity="0.9"/>
<ellipse cx="1208.4" cy="845.9" rx="26" ry="17" fill="#1a1317"/>
<circle cx="1208.4" cy="817.9" r="18.8" fill="#1a1317"/>
<circle cx="1203.4" cy="815.9" r="2.6" fill="#f0c862" opacity="0.9"/>
<circle cx="1213.4" cy="815.9" r="2.6" fill="#f0c862" opacity="0.9"/>
<ellipse cx="1253.6" cy="843.5" rx="26" ry="17" fill="#1a1317"/>
<circle cx="1253.6" cy="815.5" r="16.4" fill="#1a1317"/>
<ellipse cx="1303.1" cy="847.4" rx="26" ry="17" fill="#1a1317"/>
<circle cx="1303.1" cy="819.4" r="18.8" fill="#1a1317"/>
<ellipse cx="1344.1" cy="844.4" rx="26" ry="17" fill="#1a1317"/>
<circle cx="1344.1" cy="816.4" r="18.2" fill="#1a1317"/>
<ellipse cx="1344.1" cy="802.2" rx="25.2" ry="4" fill="#1a1317"/>
<path d="M1328.9 802.2 Q1344.1 780.2 1359.3 802.2 Z" fill="#1a1317"/>
<ellipse cx="1397.2" cy="847.8" rx="26" ry="17" fill="#1a1317"/>
<circle cx="1397.2" cy="819.8" r="17.5" fill="#1a1317"/>
<ellipse cx="1439.4" cy="845.7" rx="26" ry="17" fill="#1a1317"/>
<circle cx="1439.4" cy="817.7" r="18.5" fill="#1a1317"/>
<ellipse cx="1488.7" cy="844.6" rx="26" ry="17" fill="#1a1317"/>
<circle cx="1488.7" cy="816.6" r="17.7" fill="#1a1317"/>
<ellipse cx="1530" cy="844.1" rx="26" ry="17" fill="#1a1317"/>
<circle cx="1530" cy="816.1" r="17.4" fill="#1a1317"/>
<ellipse cx="1581" cy="847.9" rx="26" ry="17" fill="#1a1317"/>
<circle cx="1581" cy="819.9" r="16.4" fill="#1a1317"/>
<ellipse cx="1626.8" cy="843.7" rx="26" ry="17" fill="#1a1317"/>
<circle cx="1626.8" cy="815.7" r="16.2" fill="#1a1317"/>
<ellipse cx="1664" cy="843.8" rx="26" ry="17" fill="#1a1317"/>
<circle cx="1664" cy="815.8" r="16.6" fill="#1a1317"/>
<ellipse cx="1664" cy="803.2" rx="23.6" ry="4" fill="#1a1317"/>
<path d="M1650.4 803.2 Q1664 781.2 1677.6 803.2 Z" fill="#1a1317"/>
<ellipse cx="1716.9" cy="848.4" rx="26" ry="17" fill="#1a1317"/>
<circle cx="1716.9" cy="820.4" r="15.7" fill="#1a1317"/>
<ellipse cx="1765.5" cy="847.2" rx="26" ry="17" fill="#1a1317"/>
<circle cx="1765.5" cy="819.2" r="15.7" fill="#1a1317"/>
<ellipse cx="1765.5" cy="807.5" rx="22.7" ry="4" fill="#1a1317"/>
<path d="M1752.8 807.5 Q1765.5 785.5 1778.2 807.5 Z" fill="#1a1317"/>
<ellipse cx="1808.3" cy="843.1" rx="26" ry="17" fill="#1a1317"/>
<circle cx="1808.3" cy="815.1" r="18.2" fill="#1a1317"/>
<ellipse cx="1855.5" cy="843.8" rx="26" ry="17" fill="#1a1317"/>
<circle cx="1855.5" cy="815.8" r="16.3" fill="#1a1317"/>
<ellipse cx="1903.6" cy="846.3" rx="26" ry="17" fill="#1a1317"/>
<circle cx="1903.6" cy="818.3" r="17.4" fill="#1a1317"/>
<ellipse cx="-8" cy="893.4" rx="26" ry="17" fill="#21191e"/>
<circle cx="-8" cy="865.4" r="17.4" fill="#21191e"/>
<ellipse cx="-8" cy="852" rx="24.4" ry="4" fill="#21191e"/>
<path d="M-22.4 852 Q-8 830 6.4 852 Z" fill="#21191e"/>
<ellipse cx="31.5" cy="892.7" rx="26" ry="17" fill="#21191e"/>
<circle cx="31.5" cy="864.7" r="15.9" fill="#21191e"/>
<ellipse cx="79.5" cy="890.3" rx="26" ry="17" fill="#21191e"/>
<circle cx="79.5" cy="862.3" r="17.5" fill="#21191e"/>
<ellipse cx="131.1" cy="890.4" rx="26" ry="17" fill="#21191e"/>
<circle cx="131.1" cy="862.4" r="18.6" fill="#21191e"/>
<ellipse cx="131.1" cy="847.8" rx="25.6" ry="4" fill="#21191e"/>
<path d="M115.5 847.8 Q131.1 825.8 146.8 847.8 Z" fill="#21191e"/>
<ellipse cx="175.9" cy="891.4" rx="26" ry="17" fill="#21191e"/>
<circle cx="175.9" cy="863.4" r="18.2" fill="#21191e"/>
<ellipse cx="223" cy="889.6" rx="26" ry="17" fill="#21191e"/>
<circle cx="223" cy="861.6" r="18.7" fill="#21191e"/>
<ellipse cx="269.2" cy="891.5" rx="26" ry="17" fill="#21191e"/>
<circle cx="269.2" cy="863.5" r="18.5" fill="#21191e"/>
<ellipse cx="314.3" cy="894.4" rx="26" ry="17" fill="#21191e"/>
<circle cx="314.3" cy="866.4" r="18.4" fill="#21191e"/>
<ellipse cx="360.2" cy="889.9" rx="26" ry="17" fill="#21191e"/>
<circle cx="360.2" cy="861.9" r="15.5" fill="#21191e"/>
<circle cx="355.2" cy="859.9" r="2.6" fill="#f0c862" opacity="0.9"/>
<circle cx="365.2" cy="859.9" r="2.6" fill="#f0c862" opacity="0.9"/>
<ellipse cx="408.5" cy="889.3" rx="26" ry="17" fill="#21191e"/>
<circle cx="408.5" cy="861.3" r="15.3" fill="#21191e"/>
<ellipse cx="454.4" cy="894.2" rx="26" ry="17" fill="#21191e"/>
<circle cx="454.4" cy="866.2" r="18.8" fill="#21191e"/>
<ellipse cx="493" cy="889.2" rx="26" ry="17" fill="#21191e"/>
<circle cx="493" cy="861.2" r="16.9" fill="#21191e"/>
<ellipse cx="538.4" cy="890.9" rx="26" ry="17" fill="#21191e"/>
<circle cx="538.4" cy="862.9" r="16.9" fill="#21191e"/>
<ellipse cx="583.5" cy="889.3" rx="26" ry="17" fill="#21191e"/>
<circle cx="583.5" cy="861.3" r="15.4" fill="#21191e"/>
<ellipse cx="633.7" cy="893.8" rx="26" ry="17" fill="#21191e"/>
<circle cx="633.7" cy="865.8" r="17.9" fill="#21191e"/>
<ellipse cx="682" cy="891.3" rx="26" ry="17" fill="#21191e"/>
<circle cx="682" cy="863.3" r="17.5" fill="#21191e"/>
<circle cx="677" cy="861.3" r="2.6" fill="#f0c862" opacity="0.9"/>
<circle cx="687" cy="861.3" r="2.6" fill="#f0c862" opacity="0.9"/>
<ellipse cx="728.7" cy="894.8" rx="26" ry="17" fill="#21191e"/>
<circle cx="728.7" cy="866.8" r="17.8" fill="#21191e"/>
<ellipse cx="775" cy="890" rx="26" ry="17" fill="#21191e"/>
<circle cx="775" cy="862" r="15.3" fill="#21191e"/>
<ellipse cx="819.5" cy="891.6" rx="26" ry="17" fill="#21191e"/>
<circle cx="819.5" cy="863.6" r="17.2" fill="#21191e"/>
<ellipse cx="863.9" cy="889.7" rx="26" ry="17" fill="#21191e"/>
<circle cx="863.9" cy="861.7" r="15.3" fill="#21191e"/>
<ellipse cx="863.9" cy="850.5" rx="22.3" ry="4" fill="#21191e"/>
<path d="M851.7 850.5 Q863.9 828.5 876.2 850.5 Z" fill="#21191e"/>
<ellipse cx="908.5" cy="891.1" rx="26" ry="17" fill="#21191e"/>
<circle cx="908.5" cy="863.1" r="15.8" fill="#21191e"/>
<ellipse cx="952.3" cy="889.3" rx="26" ry="17" fill="#21191e"/>
<circle cx="952.3" cy="861.3" r="15" fill="#21191e"/>
<ellipse cx="1005.7" cy="889.3" rx="26" ry="17" fill="#21191e"/>
<circle cx="1005.7" cy="861.3" r="18.1" fill="#21191e"/>
<ellipse cx="1047" cy="894.4" rx="26" ry="17" fill="#21191e"/>
<circle cx="1047" cy="866.4" r="18.2" fill="#21191e"/>
<ellipse cx="1047" cy="852.3" rx="25.2" ry="4" fill="#21191e"/>
<path d="M1031.8 852.3 Q1047 830.3 1062.2 852.3 Z" fill="#21191e"/>
<ellipse cx="1098.9" cy="890.2" rx="26" ry="17" fill="#21191e"/>
<circle cx="1098.9" cy="862.2" r="17.6" fill="#21191e"/>
<ellipse cx="1135.3" cy="890" rx="26" ry="17" fill="#21191e"/>
<circle cx="1135.3" cy="862" r="18" fill="#21191e"/>
<ellipse cx="1183.5" cy="894.1" rx="26" ry="17" fill="#21191e"/>
<circle cx="1183.5" cy="866.1" r="18.3" fill="#21191e"/>
<ellipse cx="1231.6" cy="890.8" rx="26" ry="17" fill="#21191e"/>
<circle cx="1231.6" cy="862.8" r="16" fill="#21191e"/>
<ellipse cx="1281.7" cy="893.1" rx="26" ry="17" fill="#21191e"/>
<circle cx="1281.7" cy="865.1" r="17" fill="#21191e"/>
<ellipse cx="1327.2" cy="893.9" rx="26" ry="17" fill="#21191e"/>
<circle cx="1327.2" cy="865.9" r="18" fill="#21191e"/>
<circle cx="1322.2" cy="863.9" r="2.6" fill="#f0c862" opacity="0.9"/>
<circle cx="1332.2" cy="863.9" r="2.6" fill="#f0c862" opacity="0.9"/>
<ellipse cx="1371.9" cy="890.7" rx="26" ry="17" fill="#21191e"/>
<circle cx="1371.9" cy="862.7" r="17.8" fill="#21191e"/>
<ellipse cx="1419.6" cy="890" rx="26" ry="17" fill="#21191e"/>
<circle cx="1419.6" cy="862" r="18.4" fill="#21191e"/>
<ellipse cx="1465.2" cy="891.8" rx="26" ry="17" fill="#21191e"/>
<circle cx="1465.2" cy="863.8" r="18.2" fill="#21191e"/>
<ellipse cx="1503.4" cy="890.4" rx="26" ry="17" fill="#21191e"/>
<circle cx="1503.4" cy="862.4" r="15.8" fill="#21191e"/>
<ellipse cx="1503.4" cy="850.6" rx="22.8" ry="4" fill="#21191e"/>
<path d="M1490.6 850.6 Q1503.4 828.6 1516.2 850.6 Z" fill="#21191e"/>
<ellipse cx="1554.8" cy="893.9" rx="26" ry="17" fill="#21191e"/>
<circle cx="1554.8" cy="865.9" r="17.5" fill="#21191e"/>
<ellipse cx="1603.7" cy="893.9" rx="26" ry="17" fill="#21191e"/>
<circle cx="1603.7" cy="865.9" r="15.8" fill="#21191e"/>
<ellipse cx="1645.6" cy="891.3" rx="26" ry="17" fill="#21191e"/>
<circle cx="1645.6" cy="863.3" r="17.2" fill="#21191e"/>
<ellipse cx="1692.2" cy="891.3" rx="26" ry="17" fill="#21191e"/>
<circle cx="1692.2" cy="863.3" r="17" fill="#21191e"/>
<ellipse cx="1740" cy="893.6" rx="26" ry="17" fill="#21191e"/>
<circle cx="1740" cy="865.6" r="16.2" fill="#21191e"/>
<ellipse cx="1785.1" cy="892.3" rx="26" ry="17" fill="#21191e"/>
<circle cx="1785.1" cy="864.3" r="18.8" fill="#21191e"/>
<ellipse cx="1828.2" cy="892.6" rx="26" ry="17" fill="#21191e"/>
<circle cx="1828.2" cy="864.6" r="17.3" fill="#21191e"/>
<ellipse cx="1876.7" cy="890" rx="26" ry="17" fill="#21191e"/>
<circle cx="1876.7" cy="862" r="15.8" fill="#21191e"/>
<ellipse cx="1876.7" cy="850.1" rx="22.8" ry="4" fill="#21191e"/>
<path d="M1863.9 850.1 Q1876.7 828.1 1889.5 850.1 Z" fill="#21191e"/>
<ellipse cx="1920.3" cy="892.8" rx="26" ry="17" fill="#21191e"/>
<circle cx="1920.3" cy="864.8" r="18.5" fill="#21191e"/>
<rect x="-10" y="880" width="1940" height="62" fill="#2e1517" stroke="#1b1410" stroke-width="4"/>
<path d="M80 892 L80 930" stroke="#1b0d0e" stroke-width="4"/>
<path d="M240 892 L240 930" stroke="#1b0d0e" stroke-width="4"/>
<path d="M400 892 L400 930" stroke="#1b0d0e" stroke-width="4"/>
<path d="M560 892 L560 930" stroke="#1b0d0e" stroke-width="4"/>
<path d="M720 892 L720 930" stroke="#1b0d0e" stroke-width="4"/>
<path d="M880 892 L880 930" stroke="#1b0d0e" stroke-width="4"/>
<path d="M1040 892 L1040 930" stroke="#1b0d0e" stroke-width="4"/>
<path d="M1200 892 L1200 930" stroke="#1b0d0e" stroke-width="4"/>
<path d="M1360 892 L1360 930" stroke="#1b0d0e" stroke-width="4"/>
<path d="M1520 892 L1520 930" stroke="#1b0d0e" stroke-width="4"/>
<path d="M1680 892 L1680 930" stroke="#1b0d0e" stroke-width="4"/>
<path d="M1840 892 L1840 930" stroke="#1b0d0e" stroke-width="4"/>
<rect x="-10" y="884" width="1940" height="4" fill="#7a5a2a"/>
<rect x="-10" y="932" width="1940" height="4" fill="#7a5a2a"/>
<circle cx="0" cy="911" r="5" fill="#7a5a2a" stroke="#1b1410" stroke-width="2"/>
<circle cx="160" cy="911" r="5" fill="#7a5a2a" stroke="#1b1410" stroke-width="2"/>
<circle cx="320" cy="911" r="5" fill="#7a5a2a" stroke="#1b1410" stroke-width="2"/>
<circle cx="480" cy="911" r="5" fill="#7a5a2a" stroke="#1b1410" stroke-width="2"/>
<circle cx="640" cy="911" r="5" fill="#7a5a2a" stroke="#1b1410" stroke-width="2"/>
<circle cx="800" cy="911" r="5" fill="#7a5a2a" stroke="#1b1410" stroke-width="2"/>
<circle cx="960" cy="911" r="5" fill="#7a5a2a" stroke="#1b1410" stroke-width="2"/>
<circle cx="1120" cy="911" r="5" fill="#7a5a2a" stroke="#1b1410" stroke-width="2"/>
<circle cx="1280" cy="911" r="5" fill="#7a5a2a" stroke="#1b1410" stroke-width="2"/>
<circle cx="1440" cy="911" r="5" fill="#7a5a2a" stroke="#1b1410" stroke-width="2"/>
<circle cx="1600" cy="911" r="5" fill="#7a5a2a" stroke="#1b1410" stroke-width="2"/>
<circle cx="1760" cy="911" r="5" fill="#7a5a2a" stroke="#1b1410" stroke-width="2"/>
<circle cx="1920" cy="911" r="5" fill="#7a5a2a" stroke="#1b1410" stroke-width="2"/>
<rect x="0" y="942" width="1920" height="138" fill="#1a1214"/>
<rect width="1920" height="1080" fill="url(#sideShade)"/>
</svg>